name rise49.25peak52.1432fall72.8391.mot
datacolumns 19
datarows 30
range 14.60994100000000 14.65827900000000
endheader
time	ground_force1_vx	ground_force1_vy	ground_force1_vz	ground_force1_px	ground_force1_py	ground_force1_pz	ground_force2_vx	ground_force2_vy	ground_force2_vz	ground_force2_px	ground_force2_py	ground_force2_pz	ground_torque1_x	ground_torque1_y	ground_torque1_z	ground_torque2_x	ground_torque2_y	ground_torque2_z	
14.60994100000000	61.09152200000000	790.09232199999997	57.42764500000000	0.31740800000000	0.00000000000000	0.10489600000000	0.00000000000000	0.00000000000000	0.00000000000000	0.00000000000000	0.00000000000000	0.00000000000000	0.00000000000000	22.41629600000000	0.00000000000000	0.00000000000000	0.00000000000000	0.00000000000000	
14.61161300000000	60.40572900000000	791.90593100000001	57.44839500000000	0.31673900000000	0.00000000000000	0.10483100000000	0.00000000000000	0.00000000000000	0.00000000000000	0.00000000000000	0.00000000000000	0.00000000000000	0.00000000000000	22.45783300000000	0.00000000000000	0.00000000000000	0.00000000000000	0.00000000000000	
14.61327900000000	59.72219400000000	793.57798500000001	57.46295000000000	0.31608200000000	0.00000000000000	0.10476600000000	0.00000000000000	0.00000000000000	0.00000000000000	0.00000000000000	0.00000000000000	0.00000000000000	0.00000000000000	22.49662000000000	0.00000000000000	0.00000000000000	0.00000000000000	0.00000000000000	
14.61494500000000	59.04141600000000	795.10866899999996	57.47127700000000	0.31543400000000	0.00000000000000	0.10470000000000	0.00000000000000	0.00000000000000	0.00000000000000	0.00000000000000	0.00000000000000	0.00000000000000	0.00000000000000	22.53251000000000	0.00000000000000	0.00000000000000	0.00000000000000	0.00000000000000	
14.61661000000000	58.36383600000000	796.49835800000005	57.47331500000000	0.31479300000000	0.00000000000000	0.10463400000000	0.00000000000000	0.00000000000000	0.00000000000000	0.00000000000000	0.00000000000000	0.00000000000000	0.00000000000000	22.56533900000000	0.00000000000000	0.00000000000000	0.00000000000000	0.00000000000000	
14.61827400000000	57.68984300000000	797.74761799999999	57.46897800000000	0.31415800000000	0.00000000000000	0.10456700000000	0.00000000000000	0.00000000000000	0.00000000000000	0.00000000000000	0.00000000000000	0.00000000000000	0.00000000000000	22.59493400000000	0.00000000000000	0.00000000000000	0.00000000000000	0.00000000000000	
14.61994300000000	57.01977700000000	798.85721100000001	57.45815500000000	0.31352700000000	0.00000000000000	0.10450100000000	0.00000000000000	0.00000000000000	0.00000000000000	0.00000000000000	0.00000000000000	0.00000000000000	0.00000000000000	22.62111400000000	0.00000000000000	0.00000000000000	0.00000000000000	0.00000000000000	
14.62161000000000	56.35393200000000	799.82809899999995	57.44072100000000	0.31289700000000	0.00000000000000	0.10443400000000	0.00000000000000	0.00000000000000	0.00000000000000	0.00000000000000	0.00000000000000	0.00000000000000	0.00000000000000	22.64369000000000	0.00000000000000	0.00000000000000	0.00000000000000	0.00000000000000	
14.62327600000000	55.69255700000000	800.66144299999996	57.41653200000000	0.31226700000000	0.00000000000000	0.10436700000000	0.00000000000000	0.00000000000000	0.00000000000000	0.00000000000000	0.00000000000000	0.00000000000000	0.00000000000000	22.66247200000000	0.00000000000000	0.00000000000000	0.00000000000000	0.00000000000000	
14.62494400000000	55.03586400000000	801.35860900000000	57.38543400000000	0.31163500000000	0.00000000000000	0.10430100000000	0.00000000000000	0.00000000000000	0.00000000000000	0.00000000000000	0.00000000000000	0.00000000000000	0.00000000000000	22.67726600000000	0.00000000000000	0.00000000000000	0.00000000000000	0.00000000000000	
14.62660800000000	54.38402600000000	801.92116099999998	57.34726600000000	0.31099800000000	0.00000000000000	0.10423400000000	0.00000000000000	0.00000000000000	0.00000000000000	0.00000000000000	0.00000000000000	0.00000000000000	0.00000000000000	22.68787900000000	0.00000000000000	0.00000000000000	0.00000000000000	0.00000000000000	
14.62827800000000	53.73718400000000	802.35086999999999	57.30186000000000	0.31035600000000	0.00000000000000	0.10416800000000	0.00000000000000	0.00000000000000	0.00000000000000	0.00000000000000	0.00000000000000	0.00000000000000	0.00000000000000	22.69412200000000	0.00000000000000	0.00000000000000	0.00000000000000	0.00000000000000	
14.62993800000000	53.09545200000000	802.64970300000004	57.24904700000000	0.30970600000000	0.00000000000000	0.10410200000000	0.00000000000000	0.00000000000000	0.00000000000000	0.00000000000000	0.00000000000000	0.00000000000000	0.00000000000000	22.69581000000000	0.00000000000000	0.00000000000000	0.00000000000000	0.00000000000000	
14.63160600000000	52.45891500000000	802.81982700000003	57.18866200000000	0.30904600000000	0.00000000000000	0.10403600000000	0.00000000000000	0.00000000000000	0.00000000000000	0.00000000000000	0.00000000000000	0.00000000000000	0.00000000000000	22.69276500000000	0.00000000000000	0.00000000000000	0.00000000000000	0.00000000000000	
14.63328000000000	51.82763700000000	802.86360200000001	57.12054200000000	0.30837500000000	0.00000000000000	0.10397100000000	0.00000000000000	0.00000000000000	0.00000000000000	0.00000000000000	0.00000000000000	0.00000000000000	0.00000000000000	22.68481700000000	0.00000000000000	0.00000000000000	0.00000000000000	0.00000000000000	
14.63494600000000	51.20166300000000	802.78357700000004	57.04453400000000	0.30769200000000	0.00000000000000	0.10390600000000	0.00000000000000	0.00000000000000	0.00000000000000	0.00000000000000	0.00000000000000	0.00000000000000	0.00000000000000	22.67181100000000	0.00000000000000	0.00000000000000	0.00000000000000	0.00000000000000	
14.63661400000000	50.58102300000000	802.58248900000001	56.96049400000000	0.30699400000000	0.00000000000000	0.10384100000000	0.00000000000000	0.00000000000000	0.00000000000000	0.00000000000000	0.00000000000000	0.00000000000000	0.00000000000000	22.65359900000000	0.00000000000000	0.00000000000000	0.00000000000000	0.00000000000000	
14.63828000000000	49.96573400000000	802.26325199999997	56.86829200000000	0.30628000000000	0.00000000000000	0.10377700000000	0.00000000000000	0.00000000000000	0.00000000000000	0.00000000000000	0.00000000000000	0.00000000000000	0.00000000000000	22.63005000000000	0.00000000000000	0.00000000000000	0.00000000000000	0.00000000000000	
14.63994700000000	49.35580200000000	801.82895299999996	56.76781500000000	0.30554900000000	0.00000000000000	0.10371400000000	0.00000000000000	0.00000000000000	0.00000000000000	0.00000000000000	0.00000000000000	0.00000000000000	0.00000000000000	22.60105100000000	0.00000000000000	0.00000000000000	0.00000000000000	0.00000000000000	
14.64160800000000	48.75122900000000	801.28284399999995	56.65896400000000	0.30480000000000	0.00000000000000	0.10365100000000	0.00000000000000	0.00000000000000	0.00000000000000	0.00000000000000	0.00000000000000	0.00000000000000	0.00000000000000	22.56650200000000	0.00000000000000	0.00000000000000	0.00000000000000	0.00000000000000	
14.64328100000000	48.15201200000000	800.62833599999999	56.54166500000000	0.30403200000000	0.00000000000000	0.10358900000000	0.00000000000000	0.00000000000000	0.00000000000000	0.00000000000000	0.00000000000000	0.00000000000000	0.00000000000000	22.52632300000000	0.00000000000000	0.00000000000000	0.00000000000000	0.00000000000000	
14.64494600000000	47.55814400000000	799.86898799999994	56.41586000000000	0.30324300000000	0.00000000000000	0.10352800000000	0.00000000000000	0.00000000000000	0.00000000000000	0.00000000000000	0.00000000000000	0.00000000000000	0.00000000000000	22.48045600000000	0.00000000000000	0.00000000000000	0.00000000000000	0.00000000000000	
14.64661000000000	46.96962300000000	799.00849900000003	56.28151900000000	0.30243300000000	0.00000000000000	0.10346700000000	0.00000000000000	0.00000000000000	0.00000000000000	0.00000000000000	0.00000000000000	0.00000000000000	0.00000000000000	22.42885800000000	0.00000000000000	0.00000000000000	0.00000000000000	0.00000000000000	
14.64827700000000	46.38644700000000	798.05069900000001	56.13863300000000	0.30160200000000	0.00000000000000	0.10340700000000	0.00000000000000	0.00000000000000	0.00000000000000	0.00000000000000	0.00000000000000	0.00000000000000	0.00000000000000	22.37151300000000	0.00000000000000	0.00000000000000	0.00000000000000	0.00000000000000	
14.64994600000000	45.80861900000000	796.99953900000003	55.98721900000000	0.30074800000000	0.00000000000000	0.10334700000000	0.00000000000000	0.00000000000000	0.00000000000000	0.00000000000000	0.00000000000000	0.00000000000000	0.00000000000000	22.30842300000000	0.00000000000000	0.00000000000000	0.00000000000000	0.00000000000000	
14.65161200000000	45.23615000000000	795.85907999999995	55.82732000000000	0.29987100000000	0.00000000000000	0.10328900000000	0.00000000000000	0.00000000000000	0.00000000000000	0.00000000000000	0.00000000000000	0.00000000000000	0.00000000000000	22.23961200000000	0.00000000000000	0.00000000000000	0.00000000000000	0.00000000000000	
14.65327300000000	44.66905600000000	794.63348199999996	55.65900500000000	0.29897200000000	0.00000000000000	0.10323000000000	0.00000000000000	0.00000000000000	0.00000000000000	0.00000000000000	0.00000000000000	0.00000000000000	0.00000000000000	22.16512900000000	0.00000000000000	0.00000000000000	0.00000000000000	0.00000000000000	
14.65494400000000	44.10736600000000	793.32699600000001	55.48237000000000	0.29805000000000	0.00000000000000	0.10317300000000	0.00000000000000	0.00000000000000	0.00000000000000	0.00000000000000	0.00000000000000	0.00000000000000	0.00000000000000	22.08504200000000	0.00000000000000	0.00000000000000	0.00000000000000	0.00000000000000	
14.65660800000000	43.55111400000000	791.94394999999997	55.29753800000000	0.29710400000000	0.00000000000000	0.10311600000000	0.00000000000000	0.00000000000000	0.00000000000000	0.00000000000000	0.00000000000000	0.00000000000000	0.00000000000000	21.99944200000000	0.00000000000000	0.00000000000000	0.00000000000000	0.00000000000000	
14.65827900000000	43.00034800000000	790.48873900000001	55.10465800000000	0.29613600000000	0.00000000000000	0.10306000000000	0.00000000000000	0.00000000000000	0.00000000000000	0.00000000000000	0.00000000000000	0.00000000000000	0.00000000000000	21.90844400000000	0.00000000000000	0.00000000000000	0.00000000000000	0.00000000000000	
